<svg width="361" height="330" viewBox="0 0 361 330" fill="none" xmlns="http://www.w3.org/2000/svg">
<rect x="152" y="135" width="57" height="57" fill="#F0F7FF"/>
<g filter="url(#filter0_d_177_1706)">
<path d="M156.431 156.325H158.18C158.488 156.325 158.741 156.252 158.939 156.105C159.137 155.958 159.236 155.72 159.236 155.39C159.236 155.207 159.203 155.056 159.137 154.939C159.071 154.822 158.983 154.73 158.873 154.664C158.763 154.598 158.635 154.554 158.488 154.532C158.349 154.503 158.202 154.488 158.048 154.488H156.431V156.325ZM154.704 153.146H158.4C158.774 153.146 159.115 153.179 159.423 153.245C159.731 153.311 159.995 153.421 160.215 153.575C160.435 153.722 160.604 153.92 160.721 154.169C160.846 154.418 160.908 154.726 160.908 155.093C160.908 155.489 160.817 155.819 160.633 156.083C160.457 156.347 160.193 156.563 159.841 156.732C160.325 156.871 160.685 157.117 160.919 157.469C161.161 157.814 161.282 158.232 161.282 158.723C161.282 159.119 161.205 159.464 161.051 159.757C160.897 160.043 160.688 160.278 160.424 160.461C160.168 160.644 159.871 160.78 159.533 160.868C159.203 160.956 158.862 161 158.51 161H154.704V153.146ZM156.431 159.658H158.279C158.448 159.658 158.609 159.643 158.763 159.614C158.917 159.577 159.053 159.522 159.17 159.449C159.288 159.368 159.379 159.262 159.445 159.13C159.519 158.998 159.555 158.829 159.555 158.624C159.555 158.221 159.442 157.935 159.214 157.766C158.987 157.59 158.686 157.502 158.312 157.502H156.431V159.658ZM167.619 161H166.134V160.208H166.101C165.903 160.538 165.647 160.776 165.331 160.923C165.016 161.07 164.693 161.143 164.363 161.143C163.945 161.143 163.601 161.088 163.329 160.978C163.065 160.868 162.856 160.714 162.702 160.516C162.548 160.311 162.438 160.065 162.372 159.779C162.314 159.486 162.284 159.163 162.284 158.811V155.313H163.846V158.525C163.846 158.994 163.92 159.346 164.066 159.581C164.213 159.808 164.473 159.922 164.847 159.922C165.273 159.922 165.581 159.797 165.771 159.548C165.962 159.291 166.057 158.873 166.057 158.294V155.313H167.619V161ZM170.411 154.433H168.849V153.146H170.411V154.433ZM168.849 155.313H170.411V161H168.849V155.313ZM171.685 153.146H173.247V161H171.685V153.146ZM178.514 158.14C178.514 157.905 178.492 157.682 178.448 157.469C178.404 157.249 178.327 157.058 178.217 156.897C178.114 156.728 177.978 156.593 177.81 156.49C177.641 156.387 177.428 156.336 177.172 156.336C176.915 156.336 176.699 156.387 176.523 156.49C176.347 156.593 176.204 156.728 176.094 156.897C175.991 157.066 175.914 157.26 175.863 157.48C175.819 157.693 175.797 157.916 175.797 158.151C175.797 158.371 175.822 158.591 175.874 158.811C175.925 159.031 176.006 159.229 176.116 159.405C176.233 159.574 176.376 159.713 176.545 159.823C176.721 159.926 176.93 159.977 177.172 159.977C177.428 159.977 177.641 159.926 177.81 159.823C177.986 159.72 178.125 159.585 178.228 159.416C178.33 159.24 178.404 159.042 178.448 158.822C178.492 158.602 178.514 158.375 178.514 158.14ZM178.536 160.274H178.514C178.33 160.582 178.088 160.806 177.788 160.945C177.494 161.077 177.161 161.143 176.787 161.143C176.361 161.143 175.987 161.062 175.665 160.901C175.342 160.732 175.074 160.509 174.862 160.23C174.656 159.944 174.499 159.618 174.389 159.251C174.286 158.884 174.235 158.503 174.235 158.107C174.235 157.726 174.286 157.359 174.389 157.007C174.499 156.648 174.656 156.332 174.862 156.061C175.074 155.79 175.338 155.573 175.654 155.412C175.969 155.243 176.336 155.159 176.754 155.159C177.091 155.159 177.41 155.232 177.711 155.379C178.019 155.518 178.261 155.727 178.437 156.006H178.459V153.146H180.021V161H178.536V160.274ZM182.807 154.433H181.245V153.146H182.807V154.433ZM181.245 155.313H182.807V161H181.245V155.313ZM184.037 155.313H185.522V156.105H185.555C185.753 155.775 186.01 155.537 186.325 155.39C186.641 155.236 186.963 155.159 187.293 155.159C187.711 155.159 188.052 155.218 188.316 155.335C188.588 155.445 188.8 155.603 188.954 155.808C189.108 156.006 189.215 156.252 189.273 156.545C189.339 156.831 189.372 157.15 189.372 157.502V161H187.81V157.788C187.81 157.319 187.737 156.97 187.59 156.743C187.444 156.508 187.183 156.391 186.809 156.391C186.384 156.391 186.076 156.519 185.885 156.776C185.695 157.025 185.599 157.44 185.599 158.019V161H184.037V155.313ZM193.209 159.658C193.429 159.658 193.623 159.614 193.792 159.526C193.961 159.438 194.1 159.321 194.21 159.174C194.32 159.027 194.401 158.862 194.452 158.679C194.511 158.488 194.54 158.29 194.54 158.085C194.54 157.85 194.518 157.63 194.474 157.425C194.43 157.212 194.357 157.025 194.254 156.864C194.151 156.703 194.016 156.574 193.847 156.479C193.678 156.384 193.466 156.336 193.209 156.336C192.989 156.336 192.798 156.38 192.637 156.468C192.483 156.556 192.351 156.677 192.241 156.831C192.138 156.978 192.061 157.15 192.01 157.348C191.966 157.539 191.944 157.74 191.944 157.953C191.944 158.158 191.962 158.364 191.999 158.569C192.043 158.767 192.113 158.947 192.208 159.108C192.311 159.269 192.443 159.401 192.604 159.504C192.765 159.607 192.967 159.658 193.209 159.658ZM196.025 160.637C196.025 160.864 195.992 161.125 195.926 161.418C195.867 161.711 195.735 161.983 195.53 162.232C195.325 162.489 195.028 162.705 194.639 162.881C194.25 163.057 193.73 163.145 193.077 163.145C192.798 163.145 192.512 163.108 192.219 163.035C191.933 162.969 191.669 162.863 191.427 162.716C191.192 162.569 190.994 162.379 190.833 162.144C190.679 161.917 190.591 161.642 190.569 161.319H192.12C192.193 161.612 192.336 161.814 192.549 161.924C192.762 162.041 193.007 162.1 193.286 162.1C193.726 162.1 194.045 161.968 194.243 161.704C194.448 161.44 194.547 161.106 194.54 160.703V159.955H194.518C194.349 160.256 194.107 160.479 193.792 160.626C193.484 160.765 193.158 160.835 192.813 160.835C192.388 160.835 192.021 160.762 191.713 160.615C191.405 160.461 191.152 160.256 190.954 159.999C190.756 159.735 190.609 159.431 190.514 159.086C190.426 158.734 190.382 158.364 190.382 157.975C190.382 157.608 190.433 157.256 190.536 156.919C190.646 156.574 190.804 156.274 191.009 156.017C191.214 155.753 191.467 155.544 191.768 155.39C192.076 155.236 192.428 155.159 192.824 155.159C193.198 155.159 193.524 155.229 193.803 155.368C194.089 155.507 194.327 155.742 194.518 156.072H194.54V155.313H196.025V160.637ZM199.427 157.964H201.462L200.472 155.082H200.45L199.427 157.964ZM199.592 153.146H201.363L204.3 161H202.507L201.913 159.251H198.976L198.36 161H196.622L199.592 153.146ZM206.419 154.433H204.857V153.146H206.419V154.433ZM204.857 155.313H206.419V161H204.857V155.313ZM164.15 172.306H165.877V174H164.15V172.306ZM172.546 168.786C172.517 168.588 172.451 168.408 172.348 168.247C172.246 168.078 172.117 167.932 171.963 167.807C171.809 167.682 171.633 167.587 171.435 167.521C171.245 167.448 171.043 167.411 170.83 167.411C170.442 167.411 170.112 167.488 169.84 167.642C169.569 167.789 169.349 167.99 169.18 168.247C169.012 168.496 168.887 168.782 168.806 169.105C168.733 169.428 168.696 169.761 168.696 170.106C168.696 170.436 168.733 170.759 168.806 171.074C168.887 171.382 169.012 171.661 169.18 171.91C169.349 172.159 169.569 172.361 169.84 172.515C170.112 172.662 170.442 172.735 170.83 172.735C171.358 172.735 171.769 172.574 172.062 172.251C172.363 171.928 172.546 171.503 172.612 170.975H174.284C174.24 171.466 174.127 171.91 173.943 172.306C173.76 172.702 173.518 173.039 173.217 173.318C172.917 173.597 172.565 173.809 172.161 173.956C171.758 174.103 171.314 174.176 170.83 174.176C170.229 174.176 169.686 174.073 169.202 173.868C168.726 173.655 168.322 173.366 167.992 172.999C167.662 172.632 167.409 172.203 167.233 171.712C167.057 171.213 166.969 170.678 166.969 170.106C166.969 169.519 167.057 168.977 167.233 168.478C167.409 167.972 167.662 167.532 167.992 167.158C168.322 166.784 168.726 166.491 169.202 166.278C169.686 166.065 170.229 165.959 170.83 165.959C171.263 165.959 171.67 166.021 172.051 166.146C172.44 166.271 172.785 166.454 173.085 166.696C173.393 166.931 173.646 167.224 173.844 167.576C174.042 167.928 174.167 168.331 174.218 168.786H172.546ZM175.343 166.146H176.905V174H175.343V166.146ZM179.521 171.162C179.521 171.389 179.543 171.613 179.587 171.833C179.631 172.046 179.704 172.24 179.807 172.416C179.917 172.585 180.06 172.72 180.236 172.823C180.412 172.926 180.632 172.977 180.896 172.977C181.16 172.977 181.38 172.926 181.556 172.823C181.739 172.72 181.882 172.585 181.985 172.416C182.095 172.24 182.172 172.046 182.216 171.833C182.26 171.613 182.282 171.389 182.282 171.162C182.282 170.935 182.26 170.711 182.216 170.491C182.172 170.271 182.095 170.077 181.985 169.908C181.882 169.739 181.739 169.604 181.556 169.501C181.38 169.391 181.16 169.336 180.896 169.336C180.632 169.336 180.412 169.391 180.236 169.501C180.06 169.604 179.917 169.739 179.807 169.908C179.704 170.077 179.631 170.271 179.587 170.491C179.543 170.711 179.521 170.935 179.521 171.162ZM177.959 171.162C177.959 170.707 178.028 170.297 178.168 169.93C178.307 169.556 178.505 169.241 178.762 168.984C179.018 168.72 179.326 168.518 179.686 168.379C180.045 168.232 180.448 168.159 180.896 168.159C181.343 168.159 181.746 168.232 182.106 168.379C182.472 168.518 182.784 168.72 183.041 168.984C183.297 169.241 183.495 169.556 183.635 169.93C183.774 170.297 183.844 170.707 183.844 171.162C183.844 171.617 183.774 172.027 183.635 172.394C183.495 172.761 183.297 173.076 183.041 173.34C182.784 173.597 182.472 173.795 182.106 173.934C181.746 174.073 181.343 174.143 180.896 174.143C180.448 174.143 180.045 174.073 179.686 173.934C179.326 173.795 179.018 173.597 178.762 173.34C178.505 173.076 178.307 172.761 178.168 172.394C178.028 172.027 177.959 171.617 177.959 171.162ZM190.194 174H188.709V173.208H188.676C188.478 173.538 188.221 173.776 187.906 173.923C187.591 174.07 187.268 174.143 186.938 174.143C186.52 174.143 186.175 174.088 185.904 173.978C185.64 173.868 185.431 173.714 185.277 173.516C185.123 173.311 185.013 173.065 184.947 172.779C184.888 172.486 184.859 172.163 184.859 171.811V168.313H186.421V171.525C186.421 171.994 186.494 172.346 186.641 172.581C186.788 172.808 187.048 172.922 187.422 172.922C187.847 172.922 188.155 172.797 188.346 172.548C188.537 172.291 188.632 171.873 188.632 171.294V168.313H190.194V174ZM195.417 171.14C195.417 170.905 195.395 170.682 195.351 170.469C195.307 170.249 195.23 170.058 195.12 169.897C195.017 169.728 194.881 169.593 194.713 169.49C194.544 169.387 194.331 169.336 194.075 169.336C193.818 169.336 193.602 169.387 193.426 169.49C193.25 169.593 193.107 169.728 192.997 169.897C192.894 170.066 192.817 170.26 192.766 170.48C192.722 170.693 192.7 170.916 192.7 171.151C192.7 171.371 192.725 171.591 192.777 171.811C192.828 172.031 192.909 172.229 193.019 172.405C193.136 172.574 193.279 172.713 193.448 172.823C193.624 172.926 193.833 172.977 194.075 172.977C194.331 172.977 194.544 172.926 194.713 172.823C194.889 172.72 195.028 172.585 195.131 172.416C195.233 172.24 195.307 172.042 195.351 171.822C195.395 171.602 195.417 171.375 195.417 171.14ZM195.439 173.274H195.417C195.233 173.582 194.991 173.806 194.691 173.945C194.397 174.077 194.064 174.143 193.69 174.143C193.264 174.143 192.89 174.062 192.568 173.901C192.245 173.732 191.977 173.509 191.765 173.23C191.559 172.944 191.402 172.618 191.292 172.251C191.189 171.884 191.138 171.503 191.138 171.107C191.138 170.726 191.189 170.359 191.292 170.007C191.402 169.648 191.559 169.332 191.765 169.061C191.977 168.79 192.241 168.573 192.557 168.412C192.872 168.243 193.239 168.159 193.657 168.159C193.994 168.159 194.313 168.232 194.614 168.379C194.922 168.518 195.164 168.727 195.34 169.006H195.362V166.146H196.924V174H195.439V173.274Z" fill="black"/>
</g>
<defs>
<filter id="filter0_d_177_1706" x="0.704315" y="0.145996" width="359.714" height="329.03" filterUnits="userSpaceOnUse" color-interpolation-filters="sRGB">
<feFlood flood-opacity="0" result="BackgroundImageFix"/>
<feColorMatrix in="SourceAlpha" type="matrix" values="0 0 0 0 0 0 0 0 0 0 0 0 0 0 0 0 0 0 127 0" result="hardAlpha"/>
<feOffset dy="1"/>
<feGaussianBlur stdDeviation="77"/>
<feComposite in2="hardAlpha" operator="out"/>
<feColorMatrix type="matrix" values="0 0 0 0 0 0 0 0 0 0 0 0 0 0 0 0 0 0 0.25 0"/>
<feBlend mode="normal" in2="BackgroundImageFix" result="effect1_dropShadow_177_1706"/>
<feBlend mode="normal" in="SourceGraphic" in2="effect1_dropShadow_177_1706" result="shape"/>
</filter>
</defs>
</svg>
